<svg xmlns="http://www.w3.org/2000/svg" viewBox="0 0 64 64">
  <rect width="64" height="64" rx="10" fill="#0a1628"/>
  <!-- S body -->
  <path d="M38 14 C44 14 49 18 49 24 C49 30 44 33 37 35 L28 37 C20 39 16 43 16 49 C16 55 21 60 29 60 C35 60 41 57 44 52"
        fill="none" stroke="#8a9ab0" stroke-width="9" stroke-linecap="round"/>
  <path d="M26 60 C20 60 15 56 15 50 C15 44 20 41 27 39 L36 37 C44 35 48 31 48 25 C48 19 43 14 35 14 C29 14 23 17 20 22"
        fill="none" stroke="#c0ccd8" stroke-width="6" stroke-linecap="round"/>
  <!-- Arrow swoosh at top -->
  <path d="M34 10 C38 8 44 9 47 13" fill="none" stroke="#3ecfb2" stroke-width="2.5" stroke-linecap="round"/>
  <polygon points="47,9 52,14 46,15" fill="#3ecfb2"/>
</svg>
